# xmcd CD database file
#
# Track frame offsets:
#	151
#	20787
#	53000
#	76394
#	122109
#	162008
#	189767
#	201823
#	221438
#	240579
#	268097
#	278940
#
# Disc length: 3947 seconds
#
# Revision: 0
# Processed by: cddbd v1.5.2PL0 Copyright (c) Steve Scherf et al.
# Submitted via: CDex 1.51
#
DISCID=a30f690c
DTITLE=Senzoku Gakuen Symphonic Wind Orchestra - Alfred Reed live Vol. 5 Viva Musica
DYEAR=2004
DGENRE=Wind Band
TTITLE0=Alfred Reed - Viva Musica
TTITLE1=Alfred Reed - Symphony No. 2 I. Passacaglia
TTITLE2=Alfred Reed - Symphony No. 2 II. Double Fugue
TTITLE3=Alfred Reed - Symphony No. 2 III. Arioso
TTITLE4=Alfred Reed - A Symphonic Prelude
TTITLE5=Clark McAllister - Canovacci
TTITLE6=Edward Elgar - Severn Suite I. Worcester Castle
TTITLE7=Edward Elgar - Severn Suite II. Tournament
TTITLE8=Edward Elgar - Severn Suite III. The Cathedral
TTITLE9=Edward Elgar - Severn Suite IV. The Commandery
TTITLE10=Edward Elgar - Severn Suite V. Coda
TTITLE11=Alfred Reed - The Big East March
EXTD=YEAR: 2004
EXTT0=
EXTT1=
EXTT2=
EXTT3=
EXTT4=
EXTT5=
EXTT6=
EXTT7=
EXTT8=
EXTT9=
EXTT10=
EXTT11=
PLAYORDER=
